<?xml version="1.0" standalone="no"?>
<!DOCTYPE svg PUBLIC "-//W3C//DTD SVG 20010904//EN"
 "http://www.w3.org/TR/2001/REC-SVG-20010904/DTD/svg10.dtd">
<svg version="1.0" xmlns="http://www.w3.org/2000/svg"
 width="330.000000pt" height="308.000000pt" viewBox="0 0 330.000000 308.000000"
 preserveAspectRatio="xMidYMid meet">

<g transform="translate(0.000000,308.000000) scale(0.100000,-0.100000)"
fill="#000000" stroke="none">
<path d="M1052 2411 c51 -57 68 -104 68 -190 l0 -61 -351 0 -352 0 46 -49 c78
-83 77 -75 77 -711 0 -636 1 -628 -77 -711 l-46 -49 292 0 291 0 0 35 0 35
-90 0 -90 0 0 691 0 691 148 -4 c127 -4 157 -8 220 -30 109 -39 178 -84 269
-174 67 -68 89 -98 128 -178 26 -53 44 -103 41 -111 -4 -12 -27 -15 -111 -15
l-105 0 0 94 0 94 -55 51 c-55 49 -209 136 -226 126 -4 -3 -8 -326 -9 -717 0
-516 -3 -722 -12 -751 -6 -21 -32 -61 -56 -89 l-45 -49 604 3 604 3 73 27
c198 72 337 216 399 416 23 74 25 94 21 200 -4 101 -9 128 -36 197 -57 144
-168 266 -303 334 l-56 28 51 25 c108 53 201 163 237 279 23 73 25 191 5 266
-43 160 -196 302 -361 332 -38 7 -266 11 -648 11 l-589 0 44 -49z m957 -21
c124 -23 236 -110 293 -228 31 -63 33 -73 33 -172 0 -98 -3 -110 -32 -171 -59
-120 -182 -211 -311 -229 -59 -8 -82 0 -82 27 0 26 -69 164 -114 226 -80 113
-199 207 -324 257 l-62 25 0 137 0 138 274 0 c150 0 296 -4 325 -10z m30 -895
c453 -144 531 -746 129 -1006 -119 -77 -147 -82 -470 -87 l-288 -4 0 139 0
138 62 25 c173 69 319 211 402 392 36 77 66 199 66 268 l0 40 -139 0 -138 0
-7 -62 c-18 -157 -80 -298 -180 -404 l-65 -69 -1 328 0 327 274 0 c266 0 278
-1 355 -25z"/>
</g>
</svg>
